' Generated by UML Generator
' Encoded: lLXVSo8t37_dKxXvshIGkRuorym1eLUcN989lSj3fzDnTXtmPB6fRPBBNU-xL_A_jNSNqeUcBu0bMVf9bcIPTzfGPVRRUg0VkDXHHRUahAdM4sCKlziRjYYbMF4lZBmPR7Z5ICbLMRF1m4gHQweqK-JhW91HARTRAYez9ZFtwrQgIYD7CLenDIQhaWh15996yF63srsSukyrCtvRSHer84Dlv9DVQcGzIbuDlWK0dfCXGBjW31mGQoHh1Zvqg1P1C7dFbJQfn91qTxLm8Wi1HPN8MyLTEOlhZ-91o2U1v3ifQqO5qZTKvri2h-sX3QPpyv7Ml9h5Q7-WkxS1jFi-R_jdDxiuSnryxebMZWqZFwdhRj3ddxbnK9IKsycOtC1NM4wRPSKLAmsNucTbnIx2kiESjfWrlMDrUbfSV-AQtzKiHUXyH3H50cH84XX3SX14YpNDM1c08UcQjy7KpA2HYJNl38PWDTpfGUv51gs8S18aHpPC_yM69RfHPCxa0elWMD7ZOYC9cNrbDaoje0KKvLuf9apqo1yt2cK0Sx_Jy-s8JegN9APz4iwzTWqsFlNLquMKhc51AInb-S2gBEaL-siFLgfVsVFY8bKClUiQzdVp3nN-__a7LlgGecZBgo5fGu-vcseeUlMriyNfBZf64hczg85NFBJK934-oey7XU5pNKRGBKkRGSLqgVZEPNv3Pj08mCc9KlHvoRLvYvsXwOMehqXLmG5q5OKcVmc2dSowQEHp7gqgsuOGmjZsnxnua69lhowum7RAEYQNKgpxpSP0NLxF84vnkIgLhEjm8me3fQex5vyJUZaSGm87JNCAXsFdmlHdPTjYoBMPfnSTWInGKQp7poLVRuoMUrKovnra8OOxAKZ3jpXe_8PVv2SYs9FxRU--qLxdnUv2aQXzXNZa68Sam-1lP91eZGLchyILwDwyK9lETLTa4CIUH0UX_zoHKv_b7wrT2goZ-Ux4x2ac0ACR2yDyQN-50TJmyXkXTOtKu17-FlSdsDJCkJl70_NVRXDroq6RCix55qOAjFuw8UpjBDeJKujvF0ys7ftp-XfQfYWWxcY9Z7RKylqBEwIw2DeR0Uu2vt8Yn_ikO2SV68-7PusO4cWEKw8FKfCasPPAoPtRm-7pCZl1urgQzhbZeNko-tkuZo6_cxQ9p5Ve4j5IQ9TpIoWQUdwTEEufGel0hslw7DvYxLBm8zjD7CXi0OX7e4drt0gdVvnPTIrVxNCHVZMAZjwNiyPiaGoAEkVqZiTR-SXmmEr9GsX3ja3nYCUsbxHoDFXL73ZYYTumVNK_gTbdU00fJjqy6BFeThwSNNsO__bXlbfDtiy316X79xUiXdSJ8qOIc8UT9YBlIQBhFKJYkvDCuQVvpMfnTPag-l7ipSaHHAZ47UNEFfB7_gbjAVPanlx0uu7rwd0DiuGNk64OuUO93JjGKR8UxG2SyHxcT5aotNuunbTwLkHEoI-itgKQrjAUTC_EWCL1TBMRRDJCqexi71dwyA9Cw0l7PF2vcwLEfo5jAHS5LUiuk_p-Ht93-_z2lX-DyZz0FFtix3p-hM4Vq2XeAyA-I4QZly_jHUgMA6sPTWgM86fvVhQpmkZF89s96YgE2VagQh1NBwuiopMxHjJta0ZDhwDyVvwYk4_F8m8kM_i5qk2yOwBQR-j_00
' URL: http://www.plantuml.com/plantuml/uml/lLXVSo8t37_dKxXvshIGkRuorym1eLUcN989lSj3fzDnTXtmPB6fRPBBNU-xL_A_jNSNqeUcBu0bMVf9bcIPTzfGPVRRUg0VkDXHHRUahAdM4sCKlziRjYYbMF4lZBmPR7Z5ICbLMRF1m4gHQweqK-JhW91HARTRAYez9ZFtwrQgIYD7CLenDIQhaWh15996yF63srsSukyrCtvRSHer84Dlv9DVQcGzIbuDlWK0dfCXGBjW31mGQoHh1Zvqg1P1C7dFbJQfn91qTxLm8Wi1HPN8MyLTEOlhZ-91o2U1v3ifQqO5qZTKvri2h-sX3QPpyv7Ml9h5Q7-WkxS1jFi-R_jdDxiuSnryxebMZWqZFwdhRj3ddxbnK9IKsycOtC1NM4wRPSKLAmsNucTbnIx2kiESjfWrlMDrUbfSV-AQtzKiHUXyH3H50cH84XX3SX14YpNDM1c08UcQjy7KpA2HYJNl38PWDTpfGUv51gs8S18aHpPC_yM69RfHPCxa0elWMD7ZOYC9cNrbDaoje0KKvLuf9apqo1yt2cK0Sx_Jy-s8JegN9APz4iwzTWqsFlNLquMKhc51AInb-S2gBEaL-siFLgfVsVFY8bKClUiQzdVp3nN-__a7LlgGecZBgo5fGu-vcseeUlMriyNfBZf64hczg85NFBJK934-oey7XU5pNKRGBKkRGSLqgVZEPNv3Pj08mCc9KlHvoRLvYvsXwOMehqXLmG5q5OKcVmc2dSowQEHp7gqgsuOGmjZsnxnua69lhowum7RAEYQNKgpxpSP0NLxF84vnkIgLhEjm8me3fQex5vyJUZaSGm87JNCAXsFdmlHdPTjYoBMPfnSTWInGKQp7poLVRuoMUrKovnra8OOxAKZ3jpXe_8PVv2SYs9FxRU--qLxdnUv2aQXzXNZa68Sam-1lP91eZGLchyILwDwyK9lETLTa4CIUH0UX_zoHKv_b7wrT2goZ-Ux4x2ac0ACR2yDyQN-50TJmyXkXTOtKu17-FlSdsDJCkJl70_NVRXDroq6RCix55qOAjFuw8UpjBDeJKujvF0ys7ftp-XfQfYWWxcY9Z7RKylqBEwIw2DeR0Uu2vt8Yn_ikO2SV68-7PusO4cWEKw8FKfCasPPAoPtRm-7pCZl1urgQzhbZeNko-tkuZo6_cxQ9p5Ve4j5IQ9TpIoWQUdwTEEufGel0hslw7DvYxLBm8zjD7CXi0OX7e4drt0gdVvnPTIrVxNCHVZMAZjwNiyPiaGoAEkVqZiTR-SXmmEr9GsX3ja3nYCUsbxHoDFXL73ZYYTumVNK_gTbdU00fJjqy6BFeThwSNNsO__bXlbfDtiy316X79xUiXdSJ8qOIc8UT9YBlIQBhFKJYkvDCuQVvpMfnTPag-l7ipSaHHAZ47UNEFfB7_gbjAVPanlx0uu7rwd0DiuGNk64OuUO93JjGKR8UxG2SyHxcT5aotNuunbTwLkHEoI-itgKQrjAUTC_EWCL1TBMRRDJCqexi71dwyA9Cw0l7PF2vcwLEfo5jAHS5LUiuk_p-Ht93-_z2lX-DyZz0FFtix3p-hM4Vq2XeAyA-I4QZly_jHUgMA6sPTWgM86fvVhQpmkZF89s96YgE2VagQh1NBwuiopMxHjJta0ZDhwDyVvwYk4_F8m8kM_i5qk2yOwBQR-j_00
' Generated on: 2025-11-16T09:49:14.978228081

@startuml
skinparam classAttributeIconSize 0
hide circle

class Parser {
  -commands: CommandWords
  -reader: Scanner
  --
  +Parser()
  +getCommand(): Command
  +showCommands(): void
}

class Command {
  -commandWord: String
  -secondWord: String
  --
  +Command(firstWord: String, secondWord: String)
  +getCommandWord(): String
  +getSecondWord(): String
  +isUnknown(): boolean
  +hasSecondWord(): boolean
}

class CommandWords {
  -validCommands: Map<String, String>
  --
  +CommandWords()
  +isCommand(commandWord: String): boolean
  +showAll(): void
}

class Exit {
  -roomA: Room
  -roomB: Room
  -directionFromA: Direction
  -directionFromB: Direction
  -label: String
  -isVisible: boolean
  --
  +Exit(roomA: Room, roomB: Room, directionFromA: Direction, directionFromB: Direction, label: String, isVisible: boolean)
  +setRoomA(room: Room): void
  +setRoomB(room: Room): void
  +setDirectionFromA(direction: Direction): void
  +setDirectionFromB(direction: Direction): void
  +setLabel(label: String): void
  +setIsVisible(isVisible: boolean): void
  +getOtherSide(current: Room): Room
  +getDirectionFrom(room: Room): Direction
  +getDirectionFromA(): Direction
  +getDirectionFromB(): Direction
  +getLabel(): String
  +getIsVisible(): boolean
}

class Door {
  +isLocked: boolean
  +requiredKeyID: String
  +canPass: boolean
  --
  +Door(roomA: Room, roomB: Room, directionFromA: Direction, directionFromB: Direction, label: String, isVisible: boolean, requiredKeyID: String, isLocked: boolean, canPass: boolean)
  +setRequiredKeyID(requiredKeyID: String): void
  +setIsLocked(isLocked: boolean): void
  +unlock(keyID: String): boolean
  +lock(keyID: String): boolean
}

class Room {
  -name: String
  -description: String
  -exits: ArrayList<Exit>
  --
  +Room(name: String, description: String)
  +getName(): String
  +getDescription(): String
  +addExit(exit: Exit): void
  +getExits(): ArrayList<Exit>
  +getExitString(): String
  +getLongDescription(): String
}

class NPC {
}

class Scroll {
  -contents: String
  --
  +Scroll(name: String, description: String, Location: String, id: int, isVisible: boolean, contents: String)
  +setContents(contents: String): void
  +getContents(): String
}

class Lightsource {
  -isLit: boolean
  -timer: Timer = new Timer()
  -used: boolean
  --
  +Lightsource(name: String, description: String, Location: String, id: int, isVisible: boolean, isLit: boolean, used: boolean)
  +isLit(): boolean
  +turnOn(): void
}

class Key {
  -unlocks: List<Exit>
  --
  +Key(name: String, description: String, Location: String, id: int, isVisible: boolean)
  +addUnlockableExit(exit: Exit): void
  +getUnlocks(): List<Exit>
}

class Item {
  -{static} allItems: List<Item> = new ArrayList<>()
  -description: String
  -name: String
  -location: String
  -id: int
  -isVisible: boolean
  --
  +Item(name: String, description: String, Location: String, id: int, isVisible: boolean)
  +getName(): String
  +setName(name: String): void
  +getDescription(): String
  +setDescription(description: String): void
  +getLocation(): String
  +setLocation(location: String): void
  +getId(): int
  +setId(id: int): void
  +isVisible(): boolean
  +setVisible(visible: boolean): void
  +{static} getItems(location: String): List<Item>
  +{static} dropItems(itemName: String, location: String): List<Item>
}

class Spell {
  -effect: E
  --
  +Spell(name: String, description: String, Location: String, id: int, isVisible: boolean, effect: E)
  +setEffect(effect: E): void
  +getEffect(): E
}

class Player {
  -name: String
  -currentRoom: Room
  -inventory: List<Item>
  --
  +Player(name: String, startingRoom: Room)
  +getName(): String
  +getCurrentRoom(): Room
  +setCurrentRoom(room: Room): void
  +move(dir: String): void
  +addItem(item: Item): void
  +getInventory(): List<Item>
}

class AshesOfAlexandria {
  +{static} WELCOME_MESSAGE: String = "Welcome to the Ashes of Alexandria Game!"
  +{static} VERSION: String = "1.0"
}

class AshesOfAlexandriaGame {
  -parser: Parser
  -player: Player
  --
  +AshesOfAlexandriaGame()
  -createRooms(): void
  +play(): void
  -printWelcome(): void
  -processCommand(command: Command): boolean
  -printHelp(): void
  -goRoom(command: Command): void
  +createItems(): void
  -seeItem(command: Command): void
  -takeItem(command: Command): void
  -dropItem(command: Command): void
  -showInventory(): void
  +{static} main(args: String[]): void
}

Parser *-- CommandWords
Parser ..> Command
Exit *-- Room
Door --|> Exit
Door ..> Room
Room o-- Exit
Scroll --|> Item
Lightsource --|> Item
Key --|> Item
Key o-- Exit
Item o-- Item
Spell --|> Item
Player *-- Room
Player o-- Item
AshesOfAlexandriaGame *-- Parser
AshesOfAlexandriaGame *-- Player
AshesOfAlexandriaGame ..> Command
@enduml